<?xml version="1.0" encoding="UTF-8" standalone="no"?>
<!-- Created with Inkscape (http://www.inkscape.org/) -->

<svg
   width="100"
   height="100"
   viewBox="0 0 30 30"
   version="1.1"
   id="svg149"
   inkscape:version="1.2.2 (b0a8486, 2022-12-01)"
   sodipodi:docname="HM_Monogramme.svg"
   inkscape:export-filename="monogramme.svg"
   inkscape:export-xdpi="96"
   inkscape:export-ydpi="96"
   xmlns:inkscape="http://www.inkscape.org/namespaces/inkscape"
   xmlns:sodipodi="http://sodipodi.sourceforge.net/DTD/sodipodi-0.dtd"
   xmlns="http://www.w3.org/2000/svg"
   xmlns:svg="http://www.w3.org/2000/svg">
  <sodipodi:namedview
     id="namedview151"
     pagecolor="#ffffff"
     bordercolor="#000000"
     borderopacity="0.25"
     inkscape:showpageshadow="2"
     inkscape:pageopacity="0.0"
     inkscape:pagecheckerboard="0"
     inkscape:deskcolor="#d1d1d1"
     inkscape:document-units="px"
     showgrid="false"
     inkscape:zoom="1.829812"
     inkscape:cx="152.47468"
     inkscape:cy="190.18347"
     inkscape:window-width="2560"
     inkscape:window-height="1371"
     inkscape:window-x="1080"
     inkscape:window-y="32"
     inkscape:window-maximized="1"
     inkscape:current-layer="layer1" />
  <defs
     id="defs146" />
  <g
     inkscape:label="Calque 1"
     inkscape:groupmode="layer"
     id="layer1">
    <path
       d="m 20.031024,9.6218659 h 0.275882 V 26.644832 c 0,0.372475 -0.179337,0.551807 -0.689747,0.551807 h -1.738168 v 1.103569 h 8.442543 v -1.103569 h -1.738168 c -0.51041,0 -0.689747,-0.179332 -0.689747,-0.551807 V 10.173623 c 0,-0.3724201 0.179337,-0.5517571 0.689747,-0.5517571 h 1.738168 V 8.5182529 H 19.189536 L 12.899031,28.300208 h 1.200157 z M 1.5733669,28.300208 H 10.015906 V 27.196639 H 8.2777417 c -0.510457,0 -0.6897456,-0.179332 -0.6897456,-0.551807 V 18.740305 H 13.174911 V 17.636742 H 7.5879961 v -7.463119 c 0,-0.3724201 0.1792886,-0.5517571 0.6897456,-0.5517571 H 10.015906 V 8.5182529 H 1.5733669 v 1.103613 h 1.7381645 c 0.5104194,0 0.689751,0.179337 0.689751,0.5517571 v 16.471209 c 0,0.372475 -0.1793316,0.551807 -0.689751,0.551807 H 1.5733669 v 1.103569"
       style="fill:#050606;fill-opacity:1;fill-rule:nonzero;stroke:none;stroke-width:0.00472559"
       id="path160" />
  </g>
</svg>
